<?xml version="1.0" standalone="no"?>
<!DOCTYPE svg PUBLIC "-//W3C//DTD SVG 20010904//EN"
 "http://www.w3.org/TR/2001/REC-SVG-20010904/DTD/svg10.dtd">
<svg version="1.0" xmlns="http://www.w3.org/2000/svg"
 width="305.000000pt" height="314.000000pt" viewBox="0 0 305.000000 314.000000"
 preserveAspectRatio="xMidYMid meet">
<metadata>
Created by potrace 1.15, written by Peter Selinger 2001-2017
</metadata>
<g transform="translate(0.000000,314.000000) scale(0.100000,-0.100000)"
fill="#ffffff" stroke="none">
<path d="M1375 3084 c-148 -23 -227 -40 -326 -74 -234 -78 -404 -184 -585
-364 -220 -221 -349 -459 -416 -770 -32 -146 -32 -436 0 -582 67 -311 196
-549 416 -770 221 -220 460 -349 770 -416 146 -31 436 -31 582 0 310 67 549
196 770 416 220 221 349 459 416 770 32 146 32 436 0 582 -27 126 -81 283
-132 384 -139 277 -394 531 -673 672 -103 51 -287 113 -402 134 -87 15 -358
27 -420 18z m621 -299 c444 -147 725 -466 799 -908 14 -84 15 -125 6 -283 -6
-101 -17 -230 -26 -287 -14 -95 -48 -233 -59 -245 -6 -6 -56 103 -76 163 -7
22 -14 43 -16 47 -3 3 -23 -4 -47 -17 -89 -50 -273 -72 -358 -44 -83 28 -136
98 -146 193 -4 41 1 71 30 156 64 189 73 332 27 453 -28 73 -110 164 -185 203
-30 16 -55 34 -55 41 0 26 101 87 163 98 26 5 37 12 33 21 -3 7 -63 106 -133
221 -71 114 -133 214 -137 222 -12 20 56 7 180 -34z m-959 -47 c44 -46 88 -97
97 -115 35 -69 14 -122 -71 -179 -86 -57 -122 -94 -133 -135 -12 -44 -1 -80
32 -103 33 -24 42 -20 62 25 25 56 52 67 103 41 48 -25 140 -123 149 -159 8
-31 -16 -53 -56 -53 -15 0 -50 -7 -80 -16 -70 -21 -137 -85 -230 -219 -105
-152 -172 -207 -216 -177 -6 4 -23 26 -37 49 -33 52 -57 66 -103 57 -52 -10
-69 -42 -68 -129 1 -87 16 -116 91 -185 165 -152 537 -338 972 -486 179 -60
175 -56 142 -162 -51 -165 -173 -318 -309 -386 -135 -68 -297 -87 -363 -43
-48 32 -84 109 -104 224 -9 54 -20 108 -25 119 -16 39 -79 77 -173 104 -84 24
-94 29 -110 60 -30 57 -20 178 21 259 l32 64 -93 96 c-290 300 -376 531 -288
776 128 353 298 560 596 722 33 18 65 33 71 33 6 0 47 -37 91 -82z m418 -37
c54 -24 100 -79 121 -144 16 -52 16 -55 -4 -100 -15 -34 -34 -55 -68 -77 -26
-16 -52 -30 -56 -30 -7 0 -188 351 -188 364 0 8 64 14 110 9 25 -3 63 -13 85
-22z"/>
</g>
</svg>
