<?xml version="1.0" standalone="no"?>
<!DOCTYPE svg PUBLIC "-//W3C//DTD SVG 20010904//EN"
 "http://www.w3.org/TR/2001/REC-SVG-20010904/DTD/svg10.dtd">
<svg version="1.0" xmlns="http://www.w3.org/2000/svg"
 width="450.000000pt" height="360.000000pt" viewBox="0 0 450.000000 360.000000"
 preserveAspectRatio="xMidYMid meet">
<metadata>
Created by potrace 1.15, written by Peter Selinger 2001-2017
</metadata>
<g transform="translate(0.000000,360.000000) scale(0.100000,-0.100000)"
fill="#ffffff" stroke="none">
<path d="M2213 2496 c-1190 -589 -2163 -1073 -2163 -1076 0 -4 817 -306 1452
-537 l88 -32 1177 1111 c648 611 1200 1131 1228 1157 62 58 151 160 -1064
-1222 -540 -616 -984 -1124 -987 -1130 -7 -19 -113 -731 -110 -734 2 -2 130
133 286 300 l282 304 216 -63 c709 -207 882 -257 885 -253 4 5 876 3243 874
3245 -1 1 -975 -480 -2164 -1070z"/>
</g>
</svg>
