<?xml version="1.0" standalone="no"?>
<!DOCTYPE svg PUBLIC "-//W3C//DTD SVG 20010904//EN"
 "http://www.w3.org/TR/2001/REC-SVG-20010904/DTD/svg10.dtd">
<svg version="1.0" xmlns="http://www.w3.org/2000/svg"
 width="360.000000pt" height="370.000000pt" viewBox="0 0 360.000000 370.000000"
 preserveAspectRatio="xMidYMid meet">
<metadata>
Created by potrace 1.15, written by Peter Selinger 2001-2017
</metadata>
<g transform="translate(0.000000,370.000000) scale(0.100000,-0.100000)"
fill="#ffffff" stroke="none">
<path d="M738 3630 c-25 -4 -72 -16 -104 -25 l-57 -16 271 -272 c225 -226 272
-279 281 -312 13 -49 13 -51 0 -100 -9 -32 -43 -73 -167 -199 -194 -195 -237
-219 -330 -181 -24 11 -128 106 -304 282 l-266 266 -17 -55 c-40 -138 -45
-273 -16 -413 36 -174 115 -317 243 -441 183 -177 376 -250 640 -242 l130 4
882 -887 c812 -816 886 -889 947 -918 130 -63 277 -65 404 -6 81 38 221 178
258 257 75 159 57 335 -48 475 -23 32 -430 444 -902 916 l-860 859 5 117 c10
244 -71 460 -236 634 -105 110 -265 204 -412 241 -75 20 -273 29 -342 16z
m2480 -2846 c92 -45 145 -134 146 -239 0 -112 -78 -218 -185 -249 -65 -20 -92
-20 -155 -1 -110 32 -184 135 -184 255 1 152 108 260 260 260 51 0 78 -6 118
-26z"/>
<path d="M3070 3599 c-105 -21 -123 -36 -625 -539 l-480 -480 70 -70 70 -70
470 469 c258 258 480 474 492 480 53 27 107 -34 79 -87 -8 -15 -224 -236 -480
-492 l-466 -465 52 -52 c29 -29 57 -53 63 -53 5 0 224 214 485 475 342 342
482 475 498 475 12 0 31 -9 42 -20 48 -48 53 -42 -457 -552 l-478 -478 73 -72
72 -73 479 480 c558 560 536 531 536 705 0 99 -2 110 -33 171 -22 47 -53 86
-100 131 -115 108 -225 144 -362 117z"/>
<path d="M992 1180 l-254 -259 -131 -3 -130 -3 -204 -335 c-111 -184 -203
-339 -203 -344 0 -13 141 -156 154 -156 5 0 159 91 342 203 l334 202 0 125 0
125 265 265 265 265 -87 87 c-48 49 -90 88 -93 87 -3 0 -119 -117 -258 -259z"/>
</g>
</svg>
