<?xml version="1.0" standalone="no"?>
<!DOCTYPE svg PUBLIC "-//W3C//DTD SVG 20010904//EN"
 "http://www.w3.org/TR/2001/REC-SVG-20010904/DTD/svg10.dtd">
<svg version="1.0" xmlns="http://www.w3.org/2000/svg"
 width="360.000000pt" height="360.000000pt" viewBox="0 0 360.000000 360.000000"
 preserveAspectRatio="xMidYMid meet">
<metadata>
Created by potrace 1.15, written by Peter Selinger 2001-2017
</metadata>
<g transform="translate(0.000000,360.000000) scale(0.100000,-0.100000)"
fill="#ffffff" stroke="none">
<path d="M1600 3529 c-290 -36 -582 -149 -820 -317 -121 -86 -316 -280 -403
-402 -80 -112 -195 -339 -236 -465 -177 -536 -90 -1114 237 -1575 86 -121 280
-316 402 -403 199 -141 478 -258 725 -303 140 -26 450 -26 590 0 244 44 529
163 717 298 631 456 889 1247 647 1983 -41 126 -156 353 -236 465 -87 122
-281 316 -403 403 -198 141 -482 260 -720 302 -112 19 -393 28 -500 14z m443
-435 c267 -51 498 -174 693 -368 257 -258 387 -572 387 -936 0 -364 -130 -678
-387 -936 -258 -257 -572 -387 -936 -387 -364 0 -678 130 -936 387 -257 258
-387 572 -387 936 0 276 69 506 218 731 219 328 571 545 960 589 101 11 284 4
388 -16z"/>
<path d="M1752 2983 c-39 -19 -62 -59 -62 -109 0 -28 8 -44 34 -70 29 -29 41
-34 79 -34 132 0 159 172 34 219 -37 14 -46 14 -85 -6z"/>
<path d="M2390 2469 c-14 -5 -154 -139 -312 -297 l-288 -287 -162 162 c-90 88
-173 166 -185 172 -50 25 -124 8 -160 -39 -22 -27 -32 -78 -22 -112 11 -40
448 -481 492 -497 21 -8 36 -7 61 3 42 17 222 185 509 473 167 167 230 237
237 263 19 66 -17 134 -83 159 -34 13 -54 13 -87 0z"/>
<path d="M690 1903 c-61 -20 -90 -57 -90 -113 0 -87 92 -142 169 -100 29 15
61 68 61 100 0 38 -36 90 -75 106 -36 15 -41 15 -65 7z"/>
<path d="M2854 1896 c-98 -44 -98 -170 1 -212 66 -27 143 20 151 93 10 85 -76
153 -152 119z"/>
<path d="M1724 776 c-38 -38 -45 -86 -19 -135 18 -37 76 -64 116 -56 138 31
123 225 -18 225 -38 0 -50 -5 -79 -34z"/>
</g>
</svg>
